<svg height="512pt" viewBox="0 -63 512.00002 512" width="512pt" xmlns="http://www.w3.org/2000/svg"><path d="m512 210.882812-96.605469-24.550781h-176.726562l-14.667969 72.039063 14.667969 72.042968h273.332031v-55.082031l-10-15 10-15zm0 0" fill="#fdae02"/><path d="m73.335938 184.332031-73.335938 13.113281v47.886719l10 15-10 15v55.082031h238.667969v-146.082031zm0 0" fill="#fdcb02"/><path d="m274.519531 76.664062v-40.332031c0-19.871093-16.039062-36.058593-35.851562-36.3203122l-16.839844 76.6523432zm0 0" fill="#292929"/><path d="m238.667969 76.664062v-76.6523432c-.160157 0-.320313-.0117188-.480469-.0117188-20.035156 0-36.335938 16.300781-36.335938 36.332031v40.335938h36.816407zm0 0" fill="#4f4f4f"/><path d="m136.917969 385.492188c-38.640625 0-70.078125-31.4375-70.078125-70.078126 0-38.644531 31.4375-70.082031 70.078125-70.082031 38.644531 0 70.082031 31.4375 70.082031 70.082031 0 38.640626-31.4375 70.078126-70.082031 70.078126zm0 0" fill="#4f4f4f"/><path d="m136.917969 275.332031c-22.101563 0-40.078125 17.980469-40.078125 40.082031 0 22.101563 17.976562 40.082032 40.078125 40.082032 22.101562 0 40.082031-17.980469 40.082031-40.082032 0-22.101562-17.980469-40.082031-40.082031-40.082031zm0 0" fill="#bdcad4"/><path d="m350.253906 385.492188c-38.644531 0-70.082031-31.4375-70.082031-70.078126 0-38.644531 31.4375-70.082031 70.082031-70.082031 38.640625 0 70.078125 31.4375 70.078125 70.082031 0 38.640626-31.4375 70.078126-70.078125 70.078126zm0 0" fill="#292929"/><path d="m350.253906 275.332031c-22.101562 0-40.082031 17.980469-40.082031 40.082031 0 22.101563 17.980469 40.082032 40.082031 40.082032 22.101563 0 40.078125-17.980469 40.078125-40.082032 0-22.101562-17.980469-40.082031-40.078125-40.082031zm0 0" fill="#8d9ca8"/><path d="m469.335938 245.332031h42.664062v30h-42.664062zm0 0" fill="#e8f0f3"/><path d="m0 245.332031h42.664062v30h-42.664062zm0 0" fill="#ff6200"/><path d="m415.394531 186.664062-52.890625-122.664062h-123.835937l-14.667969 61.332031 14.667969 61.332031zm0 0" fill="#8d9ca8"/><path d="m60.839844 186.664062h177.828125v-122.664062h-123.503907zm0 0" fill="#afbbc4"/><path d="m223.78125 94h-89.09375l-41.039062 92.664062h130.132812zm0 0" fill="#f3fffb"/><path d="m253.78125 186.664062h128.941406l-39.953125-92.664062h-88.988281zm0 0" fill="#e8f0f3"/></svg>